<?xml version="1.0" standalone="no"?>
<!DOCTYPE svg PUBLIC "-//W3C//DTD SVG 20010904//EN"
 "http://www.w3.org/TR/2001/REC-SVG-20010904/DTD/svg10.dtd">
<svg version="1.0" xmlns="http://www.w3.org/2000/svg"
 width="300.000000pt" height="300.000000pt" viewBox="0 0 300.000000 300.000000"
 preserveAspectRatio="xMidYMid meet">
<metadata>
Created by potrace 1.10, written by Peter Selinger 2001-2011
</metadata>
<g transform="translate(0.000000,300.000000) scale(0.100000,-0.100000)"
fill="#000000" stroke="none">
<path d="M1315 2676 c-38 -17 -92 -62 -107 -89 -19 -36 -26 -85 -18 -121 7
-33 6 -34 -34 -45 -70 -20 -96 -33 -96 -47 0 -9 -19 -14 -62 -17 l-63 -3 68
-2 c38 -1 67 2 67 8 0 5 13 7 30 4 27 -6 89 5 134 22 12 4 16 0 16 -15 0 -12
5 -21 11 -21 6 0 8 8 4 19 -7 22 -8 22 122 51 114 25 108 25 121 -2 11 -23 11
-23 11 3 1 23 7 27 70 40 l69 15 11 -50 c6 -28 13 -85 16 -126 3 -41 9 -91 14
-111 4 -21 6 -42 2 -47 -4 -7 -103 -12 -273 -14 l-266 -3 -6 40 c-3 22 -8 67
-12 100 -3 33 -11 67 -16 75 -6 10 -7 1 -3 -28 3 -23 8 -76 12 -118 6 -71 5
-76 -13 -72 -21 4 -29 31 -41 133 -3 33 -8 53 -10 44 -2 -9 0 -52 6 -95 5 -43
9 -79 8 -80 -1 -1 -43 -4 -92 -5 l-91 -4 7 55 c4 30 7 69 8 85 0 51 -15 -1
-24 -78 -4 -45 -11 -67 -18 -64 -15 5 -14 21 2 119 15 87 16 88 119 88 38 0
62 4 62 11 0 7 -27 10 -82 8 -89 -4 -107 -15 -108 -66 0 -13 -9 -57 -21 -99
-11 -41 -19 -77 -17 -78 1 -1 104 1 228 5 124 4 323 7 444 8 217 1 218 1 213
22 -5 18 -2 20 16 15 12 -3 25 -6 29 -6 3 0 9 -8 11 -17 4 -16 5 -16 6 -1 1
13 9 15 44 12 l42 -3 -37 11 -36 11 0 62 c2 72 -20 118 -69 150 -27 18 -32 27
-38 84 l-7 63 -76 -7 c-43 -4 -79 -9 -81 -11 -11 -10 9 -12 61 -5 31 4 55 4
53 0 -3 -3 -26 -10 -51 -14 -26 -3 -52 -9 -58 -11 -7 -3 -16 18 -23 56 -24
126 -105 193 -188 156z m103 -22 c44 -31 92 -164 59 -164 -10 0 -17 16 -22 54
-7 58 -33 102 -69 116 -13 6 -15 9 -6 9 9 1 26 -6 38 -15z m-10 -27 c12 -13
26 -47 32 -76 13 -72 14 -71 -16 -71 -40 0 -165 -31 -159 -40 2 -4 44 1 92 12
123 26 143 29 143 18 0 -5 -10 -12 -22 -15 -13 -2 -67 -15 -121 -28 -54 -13
-100 -20 -103 -16 -2 5 -7 37 -11 72 -10 113 23 167 102 167 30 0 47 -6 63
-23z m-180 -63 c-6 -25 -6 -56 1 -97 6 -33 9 -63 6 -67 -9 -15 -114 -31 -132
-21 -15 9 -15 10 -2 11 8 0 39 7 67 15 46 14 51 18 42 35 -14 27 -12 85 4 125
19 46 27 45 14 -1z m510 -226 c27 -30 42 -71 42 -118 0 -58 -7 -69 -38 -61
-26 7 -27 12 -34 87 -4 43 -9 87 -12 97 -6 24 16 21 42 -5z"/>
<path d="M1958 2263 c-22 -26 -41 -64 -34 -70 3 -4 13 10 21 30 15 37 25 42
90 50 20 3 15 4 -16 6 -33 1 -50 -4 -61 -16z"/>
<path d="M2080 2245 c-7 -9 -13 -32 -14 -53 l-1 -37 75 -16 c113 -25 139 -24
150 7 13 32 13 71 1 78 -9 6 -165 35 -187 36 -6 0 -17 -7 -24 -15z m135 -31
c55 -14 63 -19 59 -37 -6 -32 -16 -36 -69 -27 -27 5 -65 12 -82 15 -26 5 -33
11 -33 29 0 42 23 46 125 20z"/>
<path d="M1878 2193 c6 -2 12 -11 12 -19 0 -8 5 -14 10 -14 20 0 10 -20 -17
-34 l-28 -15 33 -1 c29 0 32 3 32 31 0 32 -20 60 -42 58 -10 0 -10 -2 0 -6z"/>
<path d="M1992 2043 c-18 -71 -35 -139 -37 -153 l-6 -25 11 25 c18 41 79 280
72 280 -4 0 -22 -57 -40 -127z"/>
<path d="M772 2077 c-26 -28 -27 -48 -7 -145 9 -40 17 -86 19 -101 2 -16 6
-33 9 -38 4 -6 8 -32 9 -57 0 -26 5 -49 10 -52 4 -3 8 -12 8 -21 0 -25 31 -83
45 -83 7 0 25 -7 41 -15 15 -7 53 -17 83 -21 31 -3 61 -11 68 -16 7 -5 16 -7
20 -5 5 3 31 1 58 -4 28 -5 64 -12 80 -15 17 -2 39 -8 50 -11 28 -9 65 -10 65
-2 0 3 -17 9 -37 12 -265 39 -431 79 -449 108 -7 11 -84 396 -84 420 0 8 9 25
21 38 12 12 19 24 17 27 -3 2 -14 -6 -26 -19z"/>
<path d="M1008 2020 c-97 -3 -180 -8 -184 -12 -4 -5 7 -8 25 -8 29 0 31 -2 25
-25 -3 -14 -3 -41 0 -60 7 -35 7 -35 61 -35 l55 0 0 65 0 65 85 0 85 0 0 -55
c0 -76 -24 -73 -42 5 -6 29 -7 28 -3 -12 3 -28 0 -48 -5 -48 -6 0 -10 12 -11
28 -1 15 -5 38 -9 52 -6 19 -8 9 -9 -37 l-1 -63 55 0 55 0 0 65 0 65 45 0 45
0 0 -64 0 -64 60 -4 c65 -3 70 0 70 55 0 66 8 77 56 77 l44 0 -6 -57 c-3 -32
-7 -64 -10 -70 -2 -10 14 -13 59 -13 l63 0 15 68 15 67 149 5 c101 3 139 7
116 13 -36 8 -616 6 -903 -3z m-36 -62 c-4 -44 -6 -48 -31 -48 -15 0 -32 -5
-39 -12 -9 -9 -12 1 -12 44 l0 57 43 3 c23 2 42 3 43 3 0 0 -1 -21 -4 -47z
m205 30 c-3 -8 -6 -5 -6 6 -1 11 2 17 5 13 3 -3 4 -12 1 -19z m216 -20 c-7
-67 -9 -70 -50 -66 l-38 3 -1 53 -2 52 48 0 48 0 -5 -42z m222 -5 c-8 -27 -15
-51 -15 -55 0 -5 -18 -8 -40 -8 l-40 0 3 55 2 55 52 0 52 0 -14 -47z"/>
<path d="M1732 1963 c-6 -16 -14 -43 -17 -60 -5 -26 -3 -33 9 -33 12 0 16 11
16 48 0 26 5 53 12 60 8 8 8 12 1 12 -6 0 -15 -12 -21 -27z"/>
<path d="M1855 1980 c4 -6 2 -16 -3 -23 -5 -7 -13 -27 -17 -44 -6 -31 -10 -33
-48 -35 l-42 -1 45 -6 c25 -4 48 -5 52 -3 4 1 12 22 18 45 6 23 13 50 16 60 4
11 0 17 -11 17 -9 0 -13 -5 -10 -10z"/>
<path d="M840 1864 c0 -18 38 -165 44 -172 9 -9 7 19 -5 61 -12 45 -8 54 14
32 9 -8 19 -40 22 -70 6 -44 11 -55 25 -55 10 0 25 -3 34 -6 14 -5 16 4 16 66
l0 73 31 -7 c17 -3 58 -6 90 -6 49 0 57 -3 52 -16 -5 -13 -8 -13 -15 -2 -9 13
-2 -66 9 -105 4 -16 1 -18 -19 -12 -32 10 -32 11 -34 53 -1 20 -3 45 -3 55 -1
9 -6 17 -11 17 -6 0 -9 -28 -8 -70 1 -58 4 -70 19 -70 9 0 30 -3 47 -6 22 -4
30 -2 29 7 0 8 1 44 1 82 l2 67 49 0 49 0 -5 -47 c-12 -144 -14 -130 26 -137
59 -10 71 -7 71 14 0 10 5 52 11 92 l11 73 45 -4 45 -3 -7 -57 c-3 -31 -9 -67
-12 -80 -6 -22 -4 -23 38 -16 56 9 55 9 63 47 3 17 11 49 17 70 l10 38 69 0
c53 0 70 -3 70 -14 0 -34 -13 -75 -26 -80 -11 -4 -12 4 -8 39 7 63 -10 56 -28
-11 l-16 -56 31 6 c46 9 57 24 57 73 l0 45 65 -4 c36 -1 65 0 65 3 0 8 -226
16 -645 24 -323 6 -365 10 -365 34 0 18 -20 52 -20 35z m134 -96 c-4 -13 -6
-38 -6 -56 2 -44 -19 -37 -30 9 -5 19 -13 42 -18 52 -9 15 -6 17 26 17 32 0
35 -2 28 -22z m392 -15 c-2 -10 -8 -46 -11 -80 -4 -35 -10 -63 -13 -63 -4 0
-17 3 -29 6 -21 6 -23 12 -23 80 l0 74 41 0 c34 0 40 -3 35 -17z m200 -5 c-8
-13 -17 -42 -21 -65 -4 -24 -10 -43 -15 -43 -5 0 -15 -3 -24 -6 -13 -5 -15 4
-13 65 l2 71 43 0 c42 0 42 0 28 -22z"/>
<path d="M1916 1764 c-15 -53 -26 -98 -23 -100 2 -2 13 28 25 68 28 95 35 128
29 128 -2 0 -17 -43 -31 -96z"/>
<path d="M1795 1740 c-3 -5 -1 -10 4 -10 6 0 11 5 11 10 0 6 -2 10 -4 10 -3 0
-8 -4 -11 -10z"/>
<path d="M1770 1663 c-26 -122 -27 -124 -68 -120 -36 2 -37 4 -38 42 -1 22 -3
45 -4 50 -2 9 -29 -80 -30 -97 0 -6 87 -20 114 -19 5 0 20 42 32 93 27 107 27
108 16 108 -5 0 -15 -26 -22 -57z"/>
<path d="M1856 1538 c-28 -125 -41 -199 -38 -212 2 -4 -3 -15 -10 -24 -11 -13
-10 -14 2 -10 9 3 18 23 21 49 16 106 34 205 50 262 6 21 8 41 6 44 -3 2 -17
-46 -31 -109z"/>
<path d="M1517 1588 l-15 -23 -22 20 c-22 20 -22 20 -19 0 3 -15 13 -21 40
-23 32 -3 37 0 41 22 6 32 -5 33 -25 4z"/>
<path d="M1365 1480 c17 -6 46 -13 65 -16 94 -13 256 -47 265 -55 6 -6 10 -14
10 -19 0 -20 20 -14 23 6 3 19 -6 23 -100 43 -106 22 -197 39 -258 46 l-35 5
30 -10z"/>
<path d="M873 1390 c-12 -5 -27 -19 -33 -32 -9 -19 -9 -21 2 -7 28 33 49 36
281 31 128 -2 230 -2 227 1 -10 9 -455 16 -477 7z"/>
<path d="M1573 1373 c15 -2 39 -2 55 0 15 2 2 4 -28 4 -30 0 -43 -2 -27 -4z"/>
<path d="M1353 1343 c75 -2 199 -2 275 0 75 1 13 3 -138 3 -151 0 -213 -2
-137 -3z"/>
<path d="M840 1320 c0 -5 10 -15 23 -21 22 -12 22 -12 3 10 -21 23 -26 26 -26
11z"/>
<path d="M911 1287 c-78 -45 -62 -167 24 -183 76 -14 135 28 135 95 0 57 -32
92 -90 97 -27 3 -54 -1 -69 -9z m97 -49 c7 -7 12 -24 12 -38 0 -14 -5 -31 -12
-38 -18 -18 -75 -15 -82 4 -10 25 -7 59 6 72 15 15 61 15 76 0z"/>
<path d="M1663 1290 c-25 -10 -50 -46 -53 -75 -4 -42 1 -57 29 -86 64 -63 181
-17 181 71 0 73 -82 120 -157 90z m89 -57 c22 -19 24 -56 4 -72 -8 -7 -30 -11
-48 -9 -25 2 -35 9 -42 30 -18 52 44 89 86 51z m-115 -50 c-3 -10 -5 -4 -5 12
0 17 2 24 5 18 2 -7 2 -21 0 -30z"/>
<path d="M1076 1281 c8 -9 83 -12 268 -12 142 -1 260 2 263 5 4 3 -102 6 -234
6 -132 0 -256 3 -274 6 -26 5 -31 4 -23 -5z"/>
<path d="M520 900 c-36 -36 -20 -82 35 -100 45 -15 47 -34 3 -25 -18 4 -37 8
-42 9 -5 0 -10 -10 -10 -24 -1 -22 5 -26 45 -34 64 -12 103 7 107 52 4 40 -10
59 -49 67 -50 11 -46 27 5 20 42 -7 46 -6 46 14 0 26 -28 41 -79 41 -28 0 -48
-7 -61 -20z m29 -22 c-1 -1 3 -13 10 -25 13 -26 0 -31 -19 -8 -12 14 -6 54 6
42 3 -3 5 -7 3 -9z m72 -68 c5 0 9 -11 9 -25 0 -14 -4 -25 -10 -25 -5 0 -10 9
-10 20 0 10 -8 24 -17 30 -17 11 -17 11 0 6 10 -3 23 -6 28 -6z"/>
<path d="M855 822 l0 -97 42 4 43 3 -6 39 c-6 33 -4 39 11 39 15 0 17 -6 11
-39 l-6 -39 46 -4 c25 -2 47 -2 49 0 2 2 -1 17 -7 34 -6 17 -8 58 -5 94 l6 64
-44 0 c-48 0 -53 -7 -35 -54 8 -23 7 -26 -11 -26 -19 0 -20 4 -14 40 l7 40
-44 0 -43 0 0 -98z m48 44 c-3 -13 0 -27 7 -31 8 -5 8 -10 -1 -21 -6 -8 -9
-23 -6 -34 3 -11 1 -20 -4 -20 -10 0 -12 113 -2 123 10 11 11 9 6 -17z m105
-18 c2 -18 -1 -46 -4 -63 l-7 -30 -7 31 c-8 34 -2 94 9 94 4 0 8 -14 9 -32z"/>
<path d="M1235 822 l0 -97 40 0 40 0 0 97 0 98 -40 0 -40 0 0 -98z m49 -11 c1
-33 -2 -57 -6 -55 -4 3 -8 33 -8 66 0 78 11 69 14 -11z"/>
<path d="M1510 909 c0 -5 12 -49 26 -97 l26 -87 39 0 c39 0 39 0 54 55 9 30
20 65 25 78 20 48 13 62 -30 62 -33 0 -40 -3 -40 -20 0 -11 4 -20 9 -20 9 0 8
-8 -5 -65 l-7 -30 -8 35 c-5 19 -6 50 -3 68 l6 32 -46 0 c-26 0 -46 -5 -46
-11z m56 -44 c2 -30 -11 -33 -19 -5 -3 10 0 21 7 24 6 2 11 5 11 5 0 1 1 -10
1 -24z m45 -90 c5 4 9 1 9 -5 0 -6 -10 -10 -22 -8 -16 2 -24 11 -26 28 l-3 25
16 -23 c9 -12 21 -20 26 -17z"/>
<path d="M1885 863 c-8 -32 -20 -68 -25 -81 -20 -46 -13 -57 31 -57 40 0 41 0
36 33 -5 27 -3 32 14 32 20 0 26 -15 9 -25 -5 -3 -10 -12 -10 -20 0 -9 17 -14
50 -17 45 -3 50 -1 50 18 0 11 -4 24 -9 30 -4 5 -16 39 -26 77 l-18 67 -43 0
-43 0 -16 -57z m109 -83 c5 -25 3 -31 -5 -23 -6 6 -13 30 -16 54 -3 24 -10 49
-14 55 -5 6 -5 14 -1 18 7 8 23 -38 36 -104z m-44 55 c0 -14 -6 -25 -14 -25
-9 0 -12 8 -8 25 2 14 8 25 13 25 5 0 9 -11 9 -25z"/>
<path d="M2220 900 c0 -11 5 -20 10 -20 14 0 13 -103 -1 -117 -20 -20 -3 -38
35 -37 46 1 53 8 37 37 -7 13 -11 39 -9 58 3 32 4 30 23 -31 16 -50 25 -65 39
-65 15 0 23 13 35 57 20 72 31 82 31 30 0 -22 -4 -44 -10 -47 -5 -3 -10 -14
-10 -23 0 -23 93 -23 98 1 2 8 -2 18 -7 22 -14 8 -14 115 -1 115 6 0 10 9 10
20 0 19 -5 21 -57 18 l-57 -3 -12 -40 -11 -40 -13 43 -13 42 -59 0 c-51 0 -58
-2 -58 -20z m107 -38 c3 -12 14 -29 25 -36 15 -11 18 -20 13 -37 -7 -22 -8
-22 -21 -4 -8 10 -14 25 -14 34 0 8 -7 23 -17 33 -15 17 -17 17 -35 2 -17 -16
-18 -16 -18 3 0 26 6 31 36 29 17 -1 27 -8 31 -24z m133 -43 c0 -33 -4 -59
-10 -59 -5 0 -10 17 -10 38 0 21 -7 47 -15 58 -17 25 -12 34 16 27 16 -5 19
-14 19 -64z"/>
<path d="M670 550 c-11 -11 -20 -29 -20 -40 0 -23 33 -60 53 -60 7 0 22 -7 33
-15 17 -14 15 -15 -31 -9 -48 6 -50 5 -51 -19 -2 -29 16 -37 84 -37 99 0 113
94 19 129 -16 6 -25 16 -21 22 4 8 9 8 17 0 6 -6 21 -11 34 -11 18 0 23 6 23
24 0 28 -16 36 -76 36 -31 0 -50 -6 -64 -20z m40 -33 c0 -13 5 -28 11 -34 9
-9 7 -10 -10 -6 -15 4 -21 13 -21 34 0 16 5 29 10 29 6 0 10 -10 10 -23z m74
-69 c8 -14 7 -21 -8 -35 -18 -17 -19 -17 -12 1 4 12 0 26 -11 39 -17 19 -17
19 1 16 10 -2 24 -12 30 -21z"/>
<path d="M1010 540 c0 -23 4 -30 20 -30 11 0 20 5 20 10 0 6 5 10 10 10 6 0
10 -27 10 -60 0 -33 -4 -60 -10 -60 -5 0 -10 -9 -10 -20 0 -18 7 -20 55 -20
48 0 55 2 55 20 0 11 -4 20 -10 20 -6 0 -10 27 -10 60 0 36 4 60 11 60 5 0 7
-4 4 -10 -4 -6 5 -10 19 -10 22 0 26 4 26 30 l0 30 -95 0 -95 0 0 -30z m100
-70 c0 -40 -4 -70 -10 -70 -6 0 -10 30 -10 70 0 40 4 70 10 70 6 0 10 -30 10
-70z"/>
<path d="M1415 545 c-20 -19 -25 -34 -25 -75 0 -69 29 -100 95 -100 66 0 95
31 95 100 0 69 -29 100 -95 100 -35 0 -52 -6 -70 -25z m27 -28 c-12 -14 -11
-75 1 -94 5 -7 4 -13 -1 -13 -13 0 -22 25 -22 60 0 36 9 60 22 60 7 0 7 -5 0
-13z m58 -47 c0 -47 -3 -60 -15 -60 -12 0 -15 13 -15 60 0 47 3 60 15 60 12 0
15 -13 15 -60z m44 44 c12 -32 4 -104 -13 -104 -3 0 -6 27 -6 60 0 59 7 75 19
44z"/>
<path d="M1770 550 c0 -11 5 -20 10 -20 6 0 10 -27 10 -60 0 -33 -4 -60 -10
-60 -5 0 -10 -9 -10 -20 0 -17 7 -20 51 -20 l50 0 -7 45 c-5 39 -4 44 10 39
11 -4 16 -18 16 -45 0 -39 0 -39 40 -39 33 0 40 3 40 19 0 11 -4 23 -10 26 -5
3 -10 15 -10 26 0 10 -5 19 -12 19 -6 0 -4 7 5 18 22 25 21 48 -3 72 -16 16
-33 20 -95 20 -68 0 -75 -2 -75 -20z m63 -42 c6 -42 -3 -108 -14 -108 -5 0 -9
32 -9 70 0 72 14 95 23 38z m52 -3 c0 -10 -6 -20 -12 -22 -8 -3 -13 5 -13 22
0 17 5 25 13 23 6 -3 12 -13 12 -23z m45 15 c0 -5 -4 -10 -10 -10 -5 0 -10 5
-10 10 0 6 5 10 10 10 6 0 10 -4 10 -10z m-12 -40 c-10 -15 -10 -22 0 -32 15
-15 16 -52 1 -43 -6 4 -8 13 -5 20 2 7 0 17 -6 23 -11 11 -2 52 13 52 5 0 4
-9 -3 -20z"/>
<path d="M2165 470 l0 -100 83 0 82 0 0 40 c0 38 -2 40 -30 40 -23 0 -30 -4
-30 -20 0 -11 -7 -20 -15 -20 -9 0 -15 9 -15 25 0 16 6 25 15 25 8 0 15 5 15
10 0 6 -7 13 -15 16 -22 9 -19 44 4 44 14 0 18 -5 14 -20 -5 -17 0 -20 26 -20
30 0 31 2 31 40 l0 40 -82 0 -83 0 0 -100z m54 0 c1 -42 -3 -70 -9 -70 -6 0
-10 29 -10 70 0 39 4 70 9 70 5 0 9 -31 10 -70z"/>
</g>
</svg>
